<svg width="300" height="108" viewBox="0 0 300 108" fill="none" xmlns="http://www.w3.org/2000/svg">
<g clip-path="url(#clip0_233_23)">
<path d="M67.9246 107.136V0H114.218V16.0042H91.6002V42.9866H111.308V59.5197H91.6002V107.136H67.9246Z" fill="#8F43EE"/>
<path d="M109.466 107.136V67.4558H118.235V101.208H127.346V107.136H109.466Z" fill="#F0EB8D"/>
<path d="M136.056 61.303C132.412 61.303 129.551 60.7151 127.474 59.5395C125.436 58.3245 124.005 56.5805 123.183 54.3076C122.36 51.9953 121.948 49.1736 121.948 45.8425V12.9817H132.353V47.4297C132.353 48.4095 132.431 49.3893 132.588 50.3691C132.745 51.3486 133.078 52.1521 133.587 52.779C134.136 53.4062 134.959 53.7198 136.056 53.7198C137.193 53.7198 138.016 53.4062 138.525 52.779C139.035 52.1521 139.348 51.3486 139.466 50.3691C139.623 49.3893 139.701 48.4095 139.701 47.4297V12.9817H150.165V45.8425C150.165 49.1736 149.734 51.9953 148.872 54.3076C148.049 56.5805 146.618 58.3245 144.58 59.5395C142.542 60.7151 139.701 61.303 136.056 61.303ZM161.151 60.5977V20.8001H153.98V12.9817H178.846V20.8001H171.732V60.5977H161.151ZM183.038 60.5977V12.9817H195.441C197.479 12.9817 199.4 13.1385 201.202 13.452C203.044 13.7655 204.67 14.373 206.081 15.2743C207.492 16.1365 208.589 17.3906 209.373 19.0366C210.196 20.6433 210.608 22.7792 210.608 25.4441C210.608 27.3644 210.314 28.9907 209.726 30.3232C209.177 31.6166 208.374 32.655 207.316 33.4389C206.297 34.2226 205.062 34.7518 203.612 35.0261C205.454 35.2613 207.002 35.8686 208.256 36.8484C209.51 37.7889 210.451 39.0628 211.078 40.6695C211.744 42.2762 212.077 44.2163 212.077 46.4892C212.077 48.9583 211.744 51.0939 211.078 52.8967C210.451 54.6602 209.53 56.1104 208.315 57.2467C207.1 58.3833 205.591 59.2259 203.789 59.7747C202.025 60.3232 199.987 60.5977 197.675 60.5977H183.038ZM193.56 53.2494H195.794C198.106 53.2494 199.693 52.6616 200.555 51.4859C201.457 50.3102 201.908 48.5858 201.908 46.3129C201.908 44.51 201.711 43.0797 201.32 42.0215C200.928 40.9633 200.281 40.1991 199.38 39.729C198.478 39.2193 197.264 38.9646 195.735 38.9646H193.56V53.2494ZM193.56 32.0281H195.618C197.224 32.0281 198.439 31.7929 199.262 31.3225C200.085 30.8131 200.634 30.0883 200.908 29.1475C201.222 28.207 201.378 27.0705 201.378 25.7381C201.378 24.484 201.143 23.4454 200.673 22.6224C200.242 21.7603 199.576 21.1136 198.674 20.6825C197.812 20.2515 196.715 20.0359 195.382 20.0359H193.56V32.0281ZM215.189 60.5977L224.183 12.9817H236.176L245.052 60.5977H235.353L233.765 50.5454H226.77L225.124 60.5977H215.189ZM227.71 44.2553H232.766L230.238 25.6793L227.71 44.2553ZM249.859 60.5977V12.9817H260.382V53.4846H271.316V60.5977H249.859ZM275.922 60.5977V12.9817H286.446V53.4846H297.379V60.5977H275.922Z" fill="#8F43EE"/>
<path d="M130.628 107.136V79.3596H143.11V83.5432H136.767V90.4359H141.602V94.688H136.767V102.986H143.179V107.136H130.628ZM144.628 107.136L149.875 79.3596H156.87L162.048 107.136H156.39L155.464 101.272H151.384L150.424 107.136H144.628ZM151.932 97.6028H154.881L153.407 86.7668L151.932 97.6028ZM171.653 107.547C169.733 107.547 168.212 107.147 167.092 106.347C165.995 105.547 165.206 104.427 164.726 102.986C164.269 101.523 164.04 99.8431 164.04 97.9455V88.6183C164.04 86.6522 164.292 84.9493 164.794 83.509C165.298 82.0687 166.155 80.9598 167.367 80.1827C168.601 79.3826 170.27 78.9827 172.373 78.9827C174.43 78.9827 176.042 79.3254 177.208 80.0114C178.397 80.6972 179.243 81.6459 179.745 82.8575C180.249 84.0691 180.5 85.4864 180.5 87.1096V88.8929H174.499V86.6296C174.499 86.0349 174.453 85.4864 174.362 84.9835C174.293 84.4806 174.111 84.0804 173.813 83.7832C173.539 83.4631 173.082 83.3032 172.442 83.3032C171.779 83.3032 171.299 83.4863 171.001 83.852C170.704 84.1947 170.51 84.6292 170.418 85.155C170.35 85.6809 170.316 86.2296 170.316 86.8011V99.6603C170.316 100.278 170.373 100.86 170.487 101.409C170.624 101.935 170.853 102.369 171.173 102.712C171.516 103.032 171.996 103.192 172.613 103.192C173.253 103.192 173.745 103.021 174.087 102.678C174.43 102.335 174.67 101.889 174.808 101.341C174.945 100.792 175.013 100.209 175.013 99.5915V96.334H172.51V92.7334H180.534V107.136H176.488L176.145 104.838C175.779 105.615 175.242 106.267 174.533 106.793C173.825 107.296 172.864 107.547 171.653 107.547ZM192.4 107.547C190.274 107.547 188.605 107.204 187.394 106.518C186.205 105.81 185.37 104.792 184.89 103.467C184.41 102.118 184.17 100.472 184.17 98.5285V79.3596H190.24V99.4545C190.24 100.026 190.285 100.598 190.377 101.169C190.469 101.74 190.663 102.209 190.96 102.575C191.28 102.941 191.76 103.124 192.4 103.124C193.063 103.124 193.543 102.941 193.84 102.575C194.138 102.209 194.321 101.74 194.389 101.169C194.481 100.598 194.526 100.026 194.526 99.4545V79.3596H200.63V98.5285C200.63 100.472 200.379 102.118 199.876 103.467C199.396 104.792 198.561 105.81 197.372 106.518C196.184 107.204 194.526 107.547 192.4 107.547ZM204.535 107.136V79.3596H217.017V83.5432H210.674V90.4359H215.509V94.688H210.674V102.986H217.086V107.136H204.535Z" fill="#F0EB8D"/>
<mask id="mask0_233_23" style="mask-type:luminance" maskUnits="userSpaceOnUse" x="0" y="50" width="57" height="58">
<path d="M56.6038 50.9434H0V107.547H56.6038V50.9434Z" fill="white"/>
</mask>
<g mask="url(#mask0_233_23)">
<path d="M28.302 106.904C43.5773 106.904 55.9606 94.5206 55.9606 79.2453C55.9606 63.9699 43.5773 51.5867 28.302 51.5867C13.0265 51.5867 0.643311 63.9699 0.643311 79.2453C0.643311 94.5206 13.0265 106.904 28.302 106.904Z" stroke="#8F43EE"/>
<path d="M36.0208 52.873L28.302 57.3756V66.381L40.5233 75.3861L48.8851 72.8131L50.8147 63.1647" stroke="#8F43EE"/>
<path d="M37.9504 104.974L41.1666 96.6123L36.0208 89.5369H20.5833L15.4375 96.6123L18.6536 104.974" stroke="#8F43EE"/>
<path d="M6.43234 96.6123H15.4375L20.5833 89.5369L16.0807 74.7426L7.71878 72.813L0.643311 77.9586" stroke="#8F43EE"/>
<path d="M5.146 63.808L7.71889 72.8131L16.0808 74.7428L28.3021 66.381V57.3756L20.5834 52.873" stroke="#8F43EE"/>
<path d="M50.1717 96.6123H41.1666L36.0208 89.5369L40.5233 75.3859L48.8851 72.813L55.9606 77.9586" stroke="#8F43EE"/>
</g>
</g>
<defs>
<clipPath id="clip0_233_23">
<rect width="300" height="107.547" fill="white"/>
</clipPath>
</defs>
</svg>
