<svg width="300" height="110" viewBox="0 0 300 110" fill="none" xmlns="http://www.w3.org/2000/svg">
<g clip-path="url(#clip0_233_81)">
<path d="M92.2461 88.2352C92.2461 81.5901 86.8591 76.2031 80.214 76.2031C73.5688 76.2031 68.1819 81.5901 68.1819 88.2352V97.2593C68.1819 103.904 73.5688 109.291 80.214 109.291C86.8591 109.291 92.2461 103.904 92.2461 97.2593V88.2352Z" fill="#34B1E6"/>
<path d="M0 5.61497C0 2.51391 2.51391 0 5.61497 0H68.1818C74.827 0 80.2139 5.38695 80.2139 12.0321V100.267H5.61497C2.51391 100.267 0 97.7535 0 94.6524V5.61497Z" fill="#49E9F3"/>
<path d="M80.2139 12.0321C80.2139 5.38695 85.601 0 92.246 0H154.813C157.914 0 160.428 2.51391 160.428 5.61497V94.6524C160.428 97.7535 157.914 100.267 154.813 100.267H80.2139V12.0321Z" fill="#34B1E6"/>
<path d="M39.1043 17.0454H19.0508C16.282 17.0454 14.0375 19.29 14.0375 22.0588C14.0375 24.8276 16.282 27.0721 19.0508 27.0721H39.1043C41.8731 27.0721 44.1177 24.8276 44.1177 22.0588C44.1177 19.29 41.8731 17.0454 39.1043 17.0454Z" fill="#34B1E6"/>
<path d="M39.1043 32.0854H19.0508C16.282 32.0854 14.0375 34.33 14.0375 37.0988C14.0375 39.8676 16.282 42.1122 19.0508 42.1122H39.1043C41.8731 42.1122 44.1177 39.8676 44.1177 37.0988C44.1177 34.33 41.8731 32.0854 39.1043 32.0854Z" fill="#34B1E6"/>
<path d="M39.1043 47.1257H19.0508C16.282 47.1257 14.0375 49.3703 14.0375 52.1391C14.0375 54.9079 16.282 57.1525 19.0508 57.1525H39.1043C41.8731 57.1525 44.1177 54.9079 44.1177 52.1391C44.1177 49.3703 41.8731 47.1257 39.1043 47.1257Z" fill="#34B1E6"/>
<path d="M39.1043 62.1658H19.0508C16.282 62.1658 14.0375 64.4103 14.0375 67.1791C14.0375 69.9479 16.282 72.1925 19.0508 72.1925H39.1043C41.8731 72.1925 44.1177 69.9479 44.1177 67.1791C44.1177 64.4103 41.8731 62.1658 39.1043 62.1658Z" fill="#34B1E6"/>
<path d="M39.1043 77.2058H19.0508C16.282 77.2058 14.0375 79.4504 14.0375 82.2192C14.0375 84.988 16.282 87.2325 19.0508 87.2325H39.1043C41.8731 87.2325 44.1177 84.988 44.1177 82.2192C44.1177 79.4504 41.8731 77.2058 39.1043 77.2058Z" fill="#34B1E6"/>
<path d="M54.1444 27.0721C56.9132 27.0721 59.1577 24.8276 59.1577 22.0588C59.1577 19.29 56.9132 17.0454 54.1444 17.0454C51.3755 17.0454 49.131 19.29 49.131 22.0588C49.131 24.8276 51.3755 27.0721 54.1444 27.0721Z" fill="#34B1E6"/>
<path d="M54.1444 42.1122C56.9132 42.1122 59.1577 39.8676 59.1577 37.0988C59.1577 34.33 56.9132 32.0854 54.1444 32.0854C51.3755 32.0854 49.131 34.33 49.131 37.0988C49.131 39.8676 51.3755 42.1122 54.1444 42.1122Z" fill="#34B1E6"/>
<path d="M54.1444 57.1525C56.9132 57.1525 59.1577 54.9079 59.1577 52.1391C59.1577 49.3703 56.9132 47.1257 54.1444 47.1257C51.3755 47.1257 49.131 49.3703 49.131 52.1391C49.131 54.9079 51.3755 57.1525 54.1444 57.1525Z" fill="#34B1E6"/>
<path d="M54.1444 87.2325C56.9132 87.2325 59.1577 84.988 59.1577 82.2192C59.1577 79.4504 56.9132 77.2058 54.1444 77.2058C51.3755 77.2058 49.131 79.4504 49.131 82.2192C49.131 84.988 51.3755 87.2325 54.1444 87.2325Z" fill="#34B1E6"/>
<path d="M123.329 17.0454H103.275C100.507 17.0454 98.2621 19.29 98.2621 22.0588C98.2621 24.8276 100.507 27.0721 103.275 27.0721H123.329C126.098 27.0721 128.342 24.8276 128.342 22.0588C128.342 19.29 126.098 17.0454 123.329 17.0454Z" fill="#49E9F3"/>
<path d="M123.329 32.0854H103.275C100.507 32.0854 98.2621 34.33 98.2621 37.0988C98.2621 39.8676 100.507 42.1122 103.275 42.1122H123.329C126.098 42.1122 128.342 39.8676 128.342 37.0988C128.342 34.33 126.098 32.0854 123.329 32.0854Z" fill="#49E9F3"/>
<path d="M123.329 47.1257H103.275C100.507 47.1257 98.2621 49.3703 98.2621 52.1391C98.2621 54.9079 100.507 57.1525 103.275 57.1525H123.329C126.098 57.1525 128.342 54.9079 128.342 52.1391C128.342 49.3703 126.098 47.1257 123.329 47.1257Z" fill="#49E9F3"/>
<path d="M123.329 62.1658H103.275C100.507 62.1658 98.2621 64.4103 98.2621 67.1791C98.2621 69.9479 100.507 72.1925 103.275 72.1925H123.329C126.098 72.1925 128.342 69.9479 128.342 67.1791C128.342 64.4103 126.098 62.1658 123.329 62.1658Z" fill="#49E9F3"/>
<path d="M138.369 27.0721C141.138 27.0721 143.382 24.8276 143.382 22.0588C143.382 19.29 141.138 17.0454 138.369 17.0454C135.6 17.0454 133.356 19.29 133.356 22.0588C133.356 24.8276 135.6 27.0721 138.369 27.0721Z" fill="#49E9F3"/>
<path d="M138.369 57.1525C141.138 57.1525 143.382 54.9079 143.382 52.1391C143.382 49.3703 141.138 47.1257 138.369 47.1257C135.6 47.1257 133.356 49.3703 133.356 52.1391C133.356 54.9079 135.6 57.1525 138.369 57.1525Z" fill="#49E9F3"/>
<path d="M175.397 67.574V61.934C178.765 63.1873 182.572 63.814 186.818 63.814C191.973 63.814 194.55 62.0906 194.55 58.644C194.55 56.1373 192.967 54.884 189.803 54.884H184.539C177.661 54.884 174.222 51.7506 174.222 45.4839C174.222 38.5905 179.118 35.1438 188.91 35.1438C192.67 35.1438 196.234 35.6921 199.603 36.7888V42.4288C196.234 41.1755 192.67 40.5489 188.91 40.5489C183.27 40.5489 180.45 42.1939 180.45 45.4839C180.45 47.9905 181.813 49.2439 184.539 49.2439H189.803C197.119 49.2439 200.778 52.3773 200.778 58.644C200.778 65.694 196.125 69.2191 186.818 69.2191C182.572 69.2191 178.765 68.6707 175.397 67.574ZM205.125 40.3138H209.731L210.671 44.3089H216.875V49.2439H211.352V60.5945C211.352 62.8975 212.348 64.049 214.337 64.049H216.875V68.984H211.329C207.193 68.984 205.125 66.7672 205.125 62.3335V40.3138ZM243.336 44.3089V68.984H238.472L237.719 65.835C234.884 67.9344 231.876 68.984 228.695 68.984C223.651 68.984 221.129 65.9995 221.129 60.0305V44.3089H227.357V59.866C227.357 62.592 228.547 63.955 230.929 63.955C232.949 63.955 235.01 63.1482 237.109 61.5345V44.3089H243.336ZM264.862 50.7479C263.578 49.9019 261.964 49.4789 260.021 49.4789C256.152 49.4789 254.217 51.6488 254.217 55.9884C254.217 61.1428 256.23 63.72 260.256 63.72C261.886 63.72 263.421 63.4928 264.862 63.0385V50.7479ZM271.09 67.5035C267.314 68.4906 263.625 68.984 260.021 68.984C252.047 68.984 248.06 64.707 248.06 56.1529C248.06 48.2569 251.961 44.3089 259.763 44.3089C261.424 44.3089 263.123 44.7006 264.862 45.4839V35.3788H271.09V67.5035ZM274.028 44.3089H280.632L286.859 62.075L292.945 44.3089H299.431L289.186 69.7125C287.368 74.1932 284.462 77.3815 280.466 79.2771L277.458 75.0236C280.216 73.8172 282.221 71.851 283.474 69.1251L274.028 44.3089Z" fill="white"/>
</g>
<defs>
<clipPath id="clip0_233_81">
<rect width="300" height="109.893" fill="white"/>
</clipPath>
</defs>
</svg>
